<svg xmlns="http://www.w3.org/2000/svg" width="976.462" height="25" viewBox="0 0 976.462 25"><g transform="translate(-26 -474.5)"><g transform="translate(111.483 477)"><path d="M1140.3,1568.5l3.142,6.324,7.026,1.014-5.084,4.926,1.2,6.949-6.282-3.282-6.284,3.282,1.2-6.949-5.083-4.926,7.026-1.014Z" transform="translate(-1130.132 -1568.499)" fill="#ffc526"/><g transform="translate(22.551)"><path d="M1155.134,1568.5l3.142,6.324,7.026,1.014-5.084,4.926,1.2,6.949-6.284-3.282-6.283,3.282,1.2-6.949-5.084-4.926,7.026-1.014Z" transform="translate(-1144.967 -1568.499)" fill="#ffc526"/></g><g transform="translate(45.103)"><path d="M1169.968,1568.5l3.142,6.324,7.026,1.014-5.083,4.926,1.2,6.949-6.284-3.282-6.282,3.282,1.2-6.949-5.085-4.926,7.027-1.014Z" transform="translate(-1159.802 -1568.499)" fill="#ffc526"/></g><g transform="translate(67.654)"><path d="M1184.8,1568.5l3.142,6.324,7.025,1.014-5.084,4.926,1.2,6.949-6.283-3.282-6.283,3.282,1.2-6.949-5.085-4.926,7.026-1.014Z" transform="translate(-1174.638 -1568.499)" fill="#ffc526"/></g><g transform="translate(90.211)"><path d="M1199.644,1568.5l3.142,6.324,7.026,1.014-5.085,4.926,1.2,6.949-6.283-3.282-6.284,3.282,1.2-6.949-5.083-4.926,7.024-1.014Z" transform="translate(-1189.477 -1568.499)" fill="#ffc526"/></g></g><g transform="translate(26 478)"><path d="M-86.748,381.317h11.607v-4.346Z" transform="translate(86.748 -374.919)" fill="#aeaeae"/><path d="M-70.863,376.215v15.351l5.481-17.4Z" transform="translate(82.47 -374.162)" fill="#adadad"/><path d="M-72.479,382.923h-4.39l4.39,11Z" transform="translate(84.087 -376.522)" fill="#3d3d3d"/><path d="M-86.748,382.919l8.344,2.825-1.126-2.823Z" transform="translate(86.748 -376.52)" fill="#767676"/><g transform="translate(18.671 3.108)"><path d="M-53.277,388.671a1.984,1.984,0,0,1-.318.239,3.452,3.452,0,0,1-.58.286,5.121,5.121,0,0,1-.875.247,6.067,6.067,0,0,1-1.184.1,5.5,5.5,0,0,1-2.226-.413,4.154,4.154,0,0,1-1.55-1.153,4.713,4.713,0,0,1-.9-1.75,8.089,8.089,0,0,1-.286-2.218,7.672,7.672,0,0,1,.31-2.234,5.015,5.015,0,0,1,.93-1.773,4.267,4.267,0,0,1,1.55-1.168,5.259,5.259,0,0,1,2.186-.421,5.2,5.2,0,0,1,1.121.111,5.6,5.6,0,0,1,.874.262,3.4,3.4,0,0,1,.62.319,4.089,4.089,0,0,1,.374.278,1.276,1.276,0,0,1,.246.3.733.733,0,0,1,.1.382,1.062,1.062,0,0,1-.238.636,4.589,4.589,0,0,1-.525.587q-.191-.191-.428-.391a2.886,2.886,0,0,0-.533-.35,3.564,3.564,0,0,0-.668-.254,3.125,3.125,0,0,0-.835-.1,2.5,2.5,0,0,0-2.241,1.175,3.6,3.6,0,0,0-.477,1.2,6.6,6.6,0,0,0-.142,1.371,6.922,6.922,0,0,0,.142,1.431,3.4,3.4,0,0,0,.49,1.208,2.634,2.634,0,0,0,.914.843,2.828,2.828,0,0,0,1.407.318,2.867,2.867,0,0,0,.818-.111,3.328,3.328,0,0,0,.66-.27,3.4,3.4,0,0,0,.5-.334q.215-.175.357-.3c.065.075.14.164.222.27a3.826,3.826,0,0,1,.239.334,2.892,2.892,0,0,1,.191.349.777.777,0,0,1,.08.318.712.712,0,0,1-.08.35,1.526,1.526,0,0,1-.254.318Zm8.194-1.219a3.522,3.522,0,0,0,.368,1.839,3.107,3.107,0,0,1-.535.159,2.7,2.7,0,0,1-.52.048,1.427,1.427,0,0,1-.871-.224,1.006,1.006,0,0,1-.376-.64,2.862,2.862,0,0,1-.928.623,3.451,3.451,0,0,1-1.407.256,3.258,3.258,0,0,1-.864-.119A2.287,2.287,0,0,1-51,389a2.026,2.026,0,0,1-.576-.726,2.48,2.48,0,0,1-.227-1.109,2.115,2.115,0,0,1,.392-1.323,2.8,2.8,0,0,1,.979-.806,4.475,4.475,0,0,1,1.279-.406,12.426,12.426,0,0,1,1.263-.144c.131-.01.256-.015.376-.015h.343v-.294a1.046,1.046,0,0,0-.328-.873,1.731,1.731,0,0,0-1.064-.259,3.14,3.14,0,0,0-1.223.224,9.8,9.8,0,0,0-1.048.512,2.354,2.354,0,0,1-.36-.6,1.442,1.442,0,0,1-.136-.49.574.574,0,0,1,.248-.431,2.441,2.441,0,0,1,.679-.376,5.556,5.556,0,0,1,.992-.272,6.424,6.424,0,0,1,1.183-.1,5.245,5.245,0,0,1,1.469.176,2.288,2.288,0,0,1,.979.544,2.065,2.065,0,0,1,.535.92,4.639,4.639,0,0,1,.16,1.287Zm-2.047-1.86h-.224a1.526,1.526,0,0,0-.224.016q-.4.032-.792.1a2.255,2.255,0,0,0-.7.224,1.458,1.458,0,0,0-.5.416,1.066,1.066,0,0,0-.2.655,1.156,1.156,0,0,0,.256.76,1.057,1.057,0,0,0,.864.312,2.014,2.014,0,0,0,.575-.08,2,2,0,0,0,.48-.208,1.258,1.258,0,0,0,.328-.281.466.466,0,0,0,.119-.28V385.6Zm6.03-3.151a2.981,2.981,0,0,1,.8-.616,2.718,2.718,0,0,1,1.371-.312,3.184,3.184,0,0,1,1.124.2,2.459,2.459,0,0,1,.948.648,3.236,3.236,0,0,1,.663,1.189,5.732,5.732,0,0,1,.247,1.807,6.242,6.242,0,0,1-.287,2.056,3.517,3.517,0,0,1-.741,1.279,2.551,2.551,0,0,1-1.012.663,3.42,3.42,0,0,1-1.116.2,2.78,2.78,0,0,1-.806-.1,3.224,3.224,0,0,1-.582-.232,1.53,1.53,0,0,1-.366-.255,1.581,1.581,0,0,1-.16-.176v3.932H-43.2v-10.97c.053-.01.118-.021.2-.032s.14-.018.226-.024.188-.009.306-.008a2.1,2.1,0,0,1,.9.176.829.829,0,0,1,.468.587Zm2.879,2.959a4.781,4.781,0,0,0-.08-.9,2.17,2.17,0,0,0-.262-.72,1.267,1.267,0,0,0-.489-.471,1.57,1.57,0,0,0-.756-.168,1.326,1.326,0,0,0-.929.256.767.767,0,0,0-.262.56v3.391a2.011,2.011,0,0,0,.453.3,1.57,1.57,0,0,0,.756.177,1.29,1.29,0,0,0,1.193-.639,3.514,3.514,0,0,0,.376-1.786Zm3.95,2.75a2.739,2.739,0,0,1-.144-.671q-.033-.351-.033-.7v-7.417l.24-.032c.075-.01.154-.018.24-.023s.17-.008.256-.008a2.725,2.725,0,0,1,.511.048,1.182,1.182,0,0,1,.464.2,1.061,1.061,0,0,1,.336.392,1.42,1.42,0,0,1,.128.647v1.135h2.239v1.616h-2.239v3.41q0,1.117.911,1.116a1.255,1.255,0,0,0,.425-.072,2.56,2.56,0,0,0,.36-.16,2.009,2.009,0,0,0,.28-.184c.08-.065.136-.113.168-.144a5.384,5.384,0,0,1,.368.609,1.084,1.084,0,0,1,.128.483.638.638,0,0,1-.168.413,1.64,1.64,0,0,1-.472.37,2.915,2.915,0,0,1-.736.274,4.025,4.025,0,0,1-.944.105,2.675,2.675,0,0,1-1.543-.384,2.039,2.039,0,0,1-.775-1.008Zm9.747-.208a2.558,2.558,0,0,0,.707-.088,2.809,2.809,0,0,0,.546-.216,2.26,2.26,0,0,0,.416-.28c.118-.1.225-.194.321-.28a4.416,4.416,0,0,1,.4.615,1.355,1.355,0,0,1,.208.616.8.8,0,0,1-.4.64,2.994,2.994,0,0,1-.951.44,5.128,5.128,0,0,1-1.448.184,5.81,5.81,0,0,1-1.479-.2,3.28,3.28,0,0,1-1.295-.672,3.452,3.452,0,0,1-.921-1.287,5.133,5.133,0,0,1-.351-2.039,4.394,4.394,0,0,1,.311-1.735,3.478,3.478,0,0,1,.832-1.208,3.271,3.271,0,0,1,1.175-.7,4.123,4.123,0,0,1,1.344-.224,3.7,3.7,0,0,1,1.519.28,2.763,2.763,0,0,1,1.016.752A2.963,2.963,0,0,1-22,383.618a4.567,4.567,0,0,1,.176,1.279v.224c0,.086,0,.176-.008.273s-.01.19-.015.28a1.8,1.8,0,0,1-.023.216h-4.718a2.517,2.517,0,0,0,.545,1.468,1.858,1.858,0,0,0,1.524.588Zm.729-3.246a2.329,2.329,0,0,0-.294-1.247,1.157,1.157,0,0,0-1.07-.48,1.322,1.322,0,0,0-1.053.457A1.878,1.878,0,0,0-26.6,384.7h2.815Zm5.753-2.215a2.727,2.727,0,0,1,.255-.317,1.82,1.82,0,0,1,.392-.317,2.5,2.5,0,0,1,.512-.238,1.856,1.856,0,0,1,.6-.1,2.833,2.833,0,0,1,.408.031,1.412,1.412,0,0,1,.4.12.776.776,0,0,1,.294.237.608.608,0,0,1,.112.373,2.259,2.259,0,0,1-.176.8,6.557,6.557,0,0,1-.351.772,2.363,2.363,0,0,0-.544-.343,1.564,1.564,0,0,0-.64-.121,1.235,1.235,0,0,0-.832.289.879.879,0,0,0-.335.685v5.178h-2.175v-7.793c.053-.01.118-.021.2-.032s.14-.018.224-.024.185-.009.3-.008a1.869,1.869,0,0,1,.888.2.887.887,0,0,1,.472.609Zm6.184,0a2.889,2.889,0,0,1,.255-.317,1.82,1.82,0,0,1,.392-.317,2.5,2.5,0,0,1,.512-.238,1.859,1.859,0,0,1,.6-.1,2.833,2.833,0,0,1,.408.031,1.4,1.4,0,0,1,.4.12A.776.776,0,0,1-9,381.9a.608.608,0,0,1,.111.373,2.243,2.243,0,0,1-.176.8,6.558,6.558,0,0,1-.351.772,2.359,2.359,0,0,0-.544-.343,1.567,1.567,0,0,0-.641-.121,1.232,1.232,0,0,0-.832.289.882.882,0,0,0-.336.685v5.178h-2.174v-7.793c.053-.01.118-.021.2-.032a2.186,2.186,0,0,1,.224-.024c.086-.006.186-.008.3-.008a1.869,1.869,0,0,1,.888.2.887.887,0,0,1,.472.609Zm10.376,4.966a3.524,3.524,0,0,0,.368,1.84,3.159,3.159,0,0,1-.535.159,2.7,2.7,0,0,1-.52.048,1.433,1.433,0,0,1-.871-.224,1.008,1.008,0,0,1-.376-.64,2.886,2.886,0,0,1-.928.623,3.466,3.466,0,0,1-1.407.256,3.223,3.223,0,0,1-.864-.12A2.26,2.26,0,0,1-7.4,389a2.017,2.017,0,0,1-.576-.725,2.477,2.477,0,0,1-.224-1.108,2.11,2.11,0,0,1,.392-1.323,2.785,2.785,0,0,1,.979-.806,4.472,4.472,0,0,1,1.279-.406,12.419,12.419,0,0,1,1.263-.144c.129-.01.254-.015.376-.015h.344v-.294a1.051,1.051,0,0,0-.328-.873,1.726,1.726,0,0,0-1.064-.259,3.145,3.145,0,0,0-1.224.224,9.732,9.732,0,0,0-1.047.512,2.335,2.335,0,0,1-.36-.6,1.427,1.427,0,0,1-.137-.49.576.576,0,0,1,.248-.431,2.456,2.456,0,0,1,.68-.376,5.544,5.544,0,0,1,.992-.272,6.438,6.438,0,0,1,1.184-.1,5.235,5.235,0,0,1,1.468.176,2.278,2.278,0,0,1,.979.544,2.065,2.065,0,0,1,.536.92,4.666,4.666,0,0,1,.159,1.287v3.013Zm-2.047-1.86h-.224a1.631,1.631,0,0,0-.224.015q-.4.033-.792.1a2.293,2.293,0,0,0-.7.224,1.458,1.458,0,0,0-.5.416,1.061,1.061,0,0,0-.2.655,1.162,1.162,0,0,0,.256.76,1.057,1.057,0,0,0,.864.312,2,2,0,0,0,.576-.08,1.952,1.952,0,0,0,.479-.208,1.23,1.23,0,0,0,.328-.28.472.472,0,0,0,.121-.28V385.6Z" transform="translate(61.195 -378.416)" fill="#3d3d3d"/></g></g><text transform="translate(238.995 494)" fill="#282421" font-size="17" font-family="SofiaPro-Black, Sofia Pro" font-weight="800"><tspan x="-12.538" y="0">4.9</tspan></text><g transform="translate(369.365 477)"><path d="M1140.3,1568.5l3.142,6.324,7.026,1.014-5.084,4.926,1.2,6.949-6.282-3.282-6.284,3.282,1.2-6.949-5.083-4.926,7.026-1.014Z" transform="translate(-1130.132 -1568.499)" fill="#00b67a"/><g transform="translate(22.551)"><path d="M1155.134,1568.5l3.142,6.324,7.026,1.014-5.084,4.926,1.2,6.949-6.284-3.282-6.283,3.282,1.2-6.949-5.084-4.926,7.026-1.014Z" transform="translate(-1144.967 -1568.499)" fill="#00b67a"/></g><g transform="translate(45.103)"><path d="M1169.968,1568.5l3.142,6.324,7.026,1.014-5.083,4.926,1.2,6.949-6.284-3.282-6.282,3.282,1.2-6.949-5.085-4.926,7.027-1.014Z" transform="translate(-1159.802 -1568.499)" fill="#00b67a"/></g><g transform="translate(67.654)"><path d="M1184.8,1568.5l3.142,6.324,7.025,1.014-5.084,4.926,1.2,6.949-6.283-3.282-6.283,3.282,1.2-6.949-5.085-4.926,7.026-1.014Z" transform="translate(-1174.638 -1568.499)" fill="#00b67a"/></g><g transform="translate(90.211)"><path d="M1199.644,1568.5l3.142,6.324,7.026,1.014-5.085,4.926,1.2,6.949-6.283-3.282-6.284,3.282,1.2-6.949-5.083-4.926,7.024-1.014Z" transform="translate(-1189.477 -1568.499)" fill="#00b67a"/></g></g><g transform="translate(282 477)"><g transform="translate(21.207 7.16)"><path d="M117.763,377.866H125.9v1.519h-3.2v8.538h-1.76v-8.538h-3.187v-1.519Zm7.792,2.775h1.505v1.4h.028a1.636,1.636,0,0,1,.28-.574,2.565,2.565,0,0,1,.491-.511,2.6,2.6,0,0,1,.637-.374,1.968,1.968,0,0,1,.718-.141c.187,0,.319.006.39.013s.142.021.22.029v1.547c-.113-.02-.227-.036-.348-.05a2.755,2.755,0,0,0-.347-.022,1.884,1.884,0,0,0-.767.163,1.788,1.788,0,0,0-.625.476,2.4,2.4,0,0,0-.425.781,3.29,3.29,0,0,0-.156,1.072v3.463h-1.6v-7.276Zm11.64,7.283h-1.576v-1.015h-.028a2.194,2.194,0,0,1-.88.88,2.41,2.41,0,0,1-1.194.335,2.671,2.671,0,0,1-2.079-.711,3.141,3.141,0,0,1-.64-2.149v-4.62h1.6v4.464a1.961,1.961,0,0,0,.368,1.356,1.334,1.334,0,0,0,1.028.4,1.977,1.977,0,0,0,.841-.157,1.42,1.42,0,0,0,.546-.418,1.6,1.6,0,0,0,.306-.625,3.1,3.1,0,0,0,.093-.788v-4.222h1.6Zm2.732-2.336a1.233,1.233,0,0,0,.533.987,2.152,2.152,0,0,0,1.113.28q.256-.005.511-.036a2.176,2.176,0,0,0,.539-.136,1.021,1.021,0,0,0,.42-.292.7.7,0,0,0,.149-.5.682.682,0,0,0-.228-.5,1.568,1.568,0,0,0-.539-.319,5.449,5.449,0,0,0-.748-.207c-.28-.057-.568-.121-.859-.187a8.277,8.277,0,0,1-.866-.241,2.642,2.642,0,0,1-.747-.383,1.688,1.688,0,0,1-.525-.611,1.9,1.9,0,0,1-.2-.922,1.667,1.667,0,0,1,.291-.995,2.206,2.206,0,0,1,.732-.647,3.437,3.437,0,0,1,.987-.347,6.008,6.008,0,0,1,1.037-.1,4.8,4.8,0,0,1,1.078.121,2.765,2.765,0,0,1,.929.39,2.323,2.323,0,0,1,.69.695,2.432,2.432,0,0,1,.347,1.038H142.9a1,1,0,0,0-.526-.774,2.14,2.14,0,0,0-.951-.2,3.018,3.018,0,0,0-.4.028,2.281,2.281,0,0,0-.44.107.962.962,0,0,0-.347.227.551.551,0,0,0-.142.391.607.607,0,0,0,.206.475,1.7,1.7,0,0,0,.532.305,5.509,5.509,0,0,0,.753.206c.28.058.575.121.873.187a8.559,8.559,0,0,1,.859.242,2.564,2.564,0,0,1,.753.383,1.885,1.885,0,0,1,.532.6,1.831,1.831,0,0,1,.206.9,1.962,1.962,0,0,1-.3,1.1,2.363,2.363,0,0,1-.767.73,3.59,3.59,0,0,1-1.051.412,5.279,5.279,0,0,1-1.142.128,4.855,4.855,0,0,1-1.279-.156,3.13,3.13,0,0,1-1.016-.467,2.329,2.329,0,0,1-.675-.788,2.594,2.594,0,0,1-.262-1.122h1.618Zm5.295-4.947h1.214v-2.186h1.6v2.186h1.447v1.2H148.04v3.89a4.02,4.02,0,0,0,.022.44.824.824,0,0,0,.1.312.445.445,0,0,0,.234.191,1.135,1.135,0,0,0,.426.064c.114,0,.227,0,.34-.006a1.952,1.952,0,0,0,.342-.05v1.242c-.179.021-.355.036-.519.057a4.284,4.284,0,0,1-.518.028,3.6,3.6,0,0,1-1.021-.121,1.33,1.33,0,0,1-.6-.355,1.239,1.239,0,0,1-.3-.581,4.5,4.5,0,0,1-.094-.8v-4.294h-1.214v-1.214Zm5.4,0h1.519v.986h.028a1.991,1.991,0,0,1,.944-.908,3.12,3.12,0,0,1,1.313-.28,3.388,3.388,0,0,1,1.5.3,2.92,2.92,0,0,1,1.065.831,3.625,3.625,0,0,1,.632,1.235,5.184,5.184,0,0,1,.213,1.5,5.246,5.246,0,0,1-.191,1.419,3.8,3.8,0,0,1-.576,1.221,2.823,2.823,0,0,1-.979.841,2.9,2.9,0,0,1-1.4.319,3.939,3.939,0,0,1-.7-.063,3.083,3.083,0,0,1-.675-.206,2.423,2.423,0,0,1-.6-.361,2.257,2.257,0,0,1-.462-.511h-.029v3.634h-1.6Zm5.607,3.644a3.618,3.618,0,0,0-.128-.958,2.624,2.624,0,0,0-.383-.823,1.963,1.963,0,0,0-.632-.575,1.951,1.951,0,0,0-2.4.483,3.123,3.123,0,0,0-.511,1.874,3.589,3.589,0,0,0,.135,1.022,2.278,2.278,0,0,0,.4.81,1.892,1.892,0,0,0,.639.532,1.788,1.788,0,0,0,.866.2,1.809,1.809,0,0,0,.935-.227,1.961,1.961,0,0,0,.624-.582,2.429,2.429,0,0,0,.355-.816,4.569,4.569,0,0,0,.1-.935Zm2.831-6.423h1.6v1.519h-1.6Zm0,2.774h1.6v7.283h-1.6Zm3.037-2.774h1.6v10.057h-1.6V377.862Zm6.523,10.256a3.96,3.96,0,0,1-1.555-.292,3.25,3.25,0,0,1-1.873-2.01,4.668,4.668,0,0,1-.248-1.547,4.615,4.615,0,0,1,.248-1.532,3.46,3.46,0,0,1,.716-1.215,3.263,3.263,0,0,1,1.157-.8,4.316,4.316,0,0,1,3.108,0,3.252,3.252,0,0,1,1.874,2.01,4.616,4.616,0,0,1,.249,1.532,4.669,4.669,0,0,1-.249,1.547,3.463,3.463,0,0,1-.716,1.215,3.273,3.273,0,0,1-1.158.8A3.965,3.965,0,0,1,168.621,388.118Zm0-1.271a1.862,1.862,0,0,0,.929-.227,1.973,1.973,0,0,0,.647-.589,2.656,2.656,0,0,0,.374-.823,3.657,3.657,0,0,0,0-1.863,2.455,2.455,0,0,0-.374-.824,1.951,1.951,0,0,0-.647-.582,2.022,2.022,0,0,0-1.863,0,2.037,2.037,0,0,0-.647.582,2.6,2.6,0,0,0-.373.824,3.657,3.657,0,0,0,0,1.863,2.525,2.525,0,0,0,.373.823,1.974,1.974,0,0,0,.647.589A1.791,1.791,0,0,0,168.621,386.847Zm4.143-6.211h1.215v-2.185h1.6v2.185h1.447v1.2h-1.447v3.89a3.72,3.72,0,0,0,.022.44.808.808,0,0,0,.1.312.447.447,0,0,0,.234.192,1.135,1.135,0,0,0,.426.064c.113,0,.226,0,.341-.006a1.927,1.927,0,0,0,.34-.051v1.242c-.176.02-.355.036-.518.057a4.14,4.14,0,0,1-.518.029,3.636,3.636,0,0,1-1.023-.121,1.343,1.343,0,0,1-.6-.355,1.228,1.228,0,0,1-.3-.582,4.136,4.136,0,0,1-.094-.8v-4.294h-1.215v-1.215Z" transform="translate(-117.756 -377.862)" fill="#252525"/></g><g transform="translate(0 0)"><path d="M106.779,374.654H99.359L97.067,367.6l-2.292,7.056h-7.42l6,4.362-2.292,7.057,6-4.361,3.708-2.695Z" transform="translate(-87.355 -367.598)" fill="#797979"/><path d="M101.279,387.354l6,4.36-1.776-5.456Z" transform="translate(-91.566 -373.242)" fill="#797979"/></g></g><text transform="translate(496.783 493)" fill="#282421" font-size="17" font-family="SofiaPro-Black, Sofia Pro" font-weight="800"><tspan x="-12.555" y="0">4.8</tspan></text><g transform="translate(573.862 477)"><path d="M1140.3,1568.5l3.142,6.324,7.026,1.014-5.084,4.926,1.2,6.949-6.282-3.282-6.284,3.282,1.2-6.949-5.083-4.926,7.026-1.014Z" transform="translate(-1130.132 -1568.499)" fill="#ff492c"/><g transform="translate(22.551)"><path d="M1155.134,1568.5l3.142,6.324,7.026,1.014-5.084,4.926,1.2,6.949-6.284-3.282-6.283,3.282,1.2-6.949-5.084-4.926,7.026-1.014Z" transform="translate(-1144.967 -1568.499)" fill="#ff492c"/></g><g transform="translate(45.103)"><path d="M1169.968,1568.5l3.142,6.324,7.026,1.014-5.083,4.926,1.2,6.949-6.284-3.282-6.282,3.282,1.2-6.949-5.085-4.926,7.027-1.014Z" transform="translate(-1159.802 -1568.499)" fill="#ff492c"/></g><g transform="translate(67.654)"><path d="M1184.8,1568.5l3.142,6.324,7.025,1.014-5.084,4.926,1.2,6.949-6.283-3.282-6.283,3.282,1.2-6.949-5.085-4.926,7.026-1.014Z" transform="translate(-1174.638 -1568.499)" fill="#ff492c"/></g><g transform="translate(90.211)"><path d="M1199.644,1568.5l3.142,6.324,7.026,1.014-5.085,4.926,1.2,6.949-6.283-3.282-6.284,3.282,1.2-6.949-5.083-4.926,7.024-1.014Z" transform="translate(-1189.477 -1568.499)" fill="#ff492c"/></g></g><text transform="translate(700.195 493)" fill="#282421" font-size="17" font-family="SofiaPro-Black, Sofia Pro" font-weight="800"><tspan x="-11.807" y="0">4.7</tspan></text><g transform="translate(861.331 477)"><path d="M1140.3,1568.5l3.142,6.324,7.026,1.014-5.084,4.926,1.2,6.949-6.282-3.282-6.284,3.282,1.2-6.949-5.083-4.926,7.026-1.014Z" transform="translate(-1130.132 -1568.499)" fill="#f60"/><g transform="translate(22.551)"><path d="M1155.134,1568.5l3.142,6.324,7.026,1.014-5.084,4.926,1.2,6.949-6.284-3.282-6.283,3.282,1.2-6.949-5.084-4.926,7.026-1.014Z" transform="translate(-1144.967 -1568.499)" fill="#f60"/></g><g transform="translate(45.103)"><path d="M1169.968,1568.5l3.142,6.324,7.026,1.014-5.083,4.926,1.2,6.949-6.284-3.282-6.282,3.282,1.2-6.949-5.085-4.926,7.027-1.014Z" transform="translate(-1159.802 -1568.499)" fill="#f60"/></g><g transform="translate(67.654)"><path d="M1184.8,1568.5l3.142,6.324,7.025,1.014-5.084,4.926,1.2,6.949-6.283-3.282-6.283,3.282,1.2-6.949-5.085-4.926,7.026-1.014Z" transform="translate(-1174.638 -1568.499)" fill="#f60"/></g><g transform="translate(90.211)"><path d="M1199.644,1568.5l3.142,6.324,7.026,1.014-5.085,4.926,1.2,6.949-6.283-3.282-6.284,3.282,1.2-6.949-5.083-4.926,7.024-1.014Z" transform="translate(-1189.477 -1568.499)" fill="#f60"/></g></g><text transform="translate(989.462 494)" fill="#282421" font-size="17" font-family="SofiaPro-Black, Sofia Pro" font-weight="800"><tspan x="-12.223" y="0">5.0</tspan></text><g transform="translate(547 476)"><path d="M11.407,20.656A9.286,9.286,0,0,1,2.45,14.1,9.039,9.039,0,0,1,4.322,5.2a8.965,8.965,0,0,1,5.191-3.02,9.146,9.146,0,0,1,3.508-.029c.13.024.131.059.08.163Q12.245,4.1,11.4,5.888A.18.18,0,0,1,11.21,6,5.322,5.322,0,0,0,9.368,16.268a5.189,5.189,0,0,0,5.338-.817c.083-.062.117-.075.177.028q.936,1.638,1.888,3.269c.056.1.036.139-.047.2a9.276,9.276,0,0,1-4.132,1.622,11.194,11.194,0,0,1-1.185.089Z" transform="translate(0)" fill="#787878"/><path d="M160.238,144.647c-.051-.027-.066-.084-.092-.129q-1.064-1.841-2.121-3.685a.268.268,0,0,0-.272-.151c-1.409,0-2.817,0-4.226,0h-.175a.21.21,0,0,1,.055-.147l2.148-3.729a.217.217,0,0,1,.22-.125q2.163.006,4.325,0a.215.215,0,0,1,.218.125q1.079,1.88,2.168,3.755a.193.193,0,0,1,.006.224q-1.094,1.889-2.179,3.774C160.291,144.591,160.283,144.634,160.238,144.647Z" transform="translate(-142.375 -126.693)" fill="#787878"/><path d="M205.458,15.235c-.258-.258-.5-.505-.749-.749-.077-.075-.023-.13.01-.187a2.246,2.246,0,0,1,1.3-1.032,2.511,2.511,0,0,1,2.025.2,1.686,1.686,0,0,1,.374,2.652,3.572,3.572,0,0,1-.827.595c-.312.166-.624.323-.93.5a1.114,1.114,0,0,0-.543.637c-.037.117-.015.148.11.147.825,0,1.65,0,2.476,0,.125,0,.172.024.167.16-.011.291-.007.583,0,.874,0,.092-.026.125-.12.125q-1.99,0-3.978,0c-.062,0-.12,0-.121-.09a3.056,3.056,0,0,1,.888-2.429,4.752,4.752,0,0,1,1.141-.749,3.323,3.323,0,0,0,.655-.378.736.736,0,0,0,.306-.543c.019-.361-.267-.63-.7-.658a1.408,1.408,0,0,0-1.382.754c-.031.051-.06.1-.1.178Z" transform="translate(-190.633 -10.479)" fill="#787878"/><path d="M269.89,287.306v-.3h-.107v-.062h.288v.062h-.109v.3Zm.226,0v-.361h.109l.062.246.062-.246h.11v.361H270.4v-.285l-.072.285h-.071l-.071-.285v.285Z" transform="translate(-251.901 -268.044)" fill="#787878"/></g><g transform="translate(693.488 -2132.795)"><g transform="translate(58 2612.795)"><path d="M45.846,28.491c0-3.015-1.073-4.388-1.642-4.909a.162.162,0,0,0-.268.142c.111,1.7-2.036,2.131-2.036,4.8v.016a2.754,2.754,0,1,0,5.493,0v-.016a4.458,4.458,0,0,0-.568-2.021c-.063-.111-.221-.063-.205.032C47.141,28.838,45.846,30.259,45.846,28.491Z" transform="translate(-35.294 -19.888)" fill="#848484" style="isolation:isolate"/><path d="M7.335,15.365a.291.291,0,0,1-.189-.079L.121,8.261a.288.288,0,0,1,0-.379L7.54.463A.331.331,0,0,1,7.714.4H9.845a.249.249,0,0,1,.237.158.256.256,0,0,1-.063.284L3.057,7.819a.353.353,0,0,0,0,.505L8.566,13.85a.288.288,0,0,1,0,.379L7.509,15.3a.331.331,0,0,1-.174.063ZM8.74,16.6a.249.249,0,0,1-.237-.158.256.256,0,0,1,.063-.284l6.977-6.977a.373.373,0,0,0,.111-.253.314.314,0,0,0-.111-.253L10.019,3.147a.288.288,0,0,1,0-.379l1.073-1.073a.261.261,0,0,1,.189-.079.241.241,0,0,1,.174.095l7.009,7.025a.267.267,0,0,1,0,.379l-7.419,7.419a.261.261,0,0,1-.189.079H8.74Z" transform="translate(-0.05 -0.4)" fill="#848484" style="isolation:isolate"/></g><g transform="translate(79.587 2616.631)" style="isolation:isolate"><path d="M142.441,26.505a.158.158,0,0,1-.158.095.3.3,0,0,1-.189-.111,1.825,1.825,0,0,0-.316-.237,1.877,1.877,0,0,0-.505-.237,2.133,2.133,0,0,0-.758-.111,2.434,2.434,0,0,0-.789.126,1.719,1.719,0,0,0-.568.347,1.381,1.381,0,0,0-.347.505,1.572,1.572,0,0,0-.126.6,1.331,1.331,0,0,0,.174.695,1.464,1.464,0,0,0,.474.458,2.581,2.581,0,0,0,.663.316c.253.095.505.174.758.253a7.389,7.389,0,0,1,.758.284,3.02,3.02,0,0,1,.663.379,1.662,1.662,0,0,1,.474.568,1.877,1.877,0,0,1,.174.837,2.745,2.745,0,0,1-.174.963,2.184,2.184,0,0,1-.505.789,2.74,2.74,0,0,1-.821.537,3.062,3.062,0,0,1-1.105.189,3.114,3.114,0,0,1-1.389-.284,3.311,3.311,0,0,1-1.026-.789l.158-.253a.175.175,0,0,1,.158-.079.189.189,0,0,1,.126.063c.047.047.126.111.189.174.079.063.174.142.284.221a2.173,2.173,0,0,0,.379.221,2.923,2.923,0,0,0,.489.174,2.593,2.593,0,0,0,.631.063,2.442,2.442,0,0,0,.868-.142,2.032,2.032,0,0,0,.647-.395,1.766,1.766,0,0,0,.41-.6,2,2,0,0,0,.142-.742,1.391,1.391,0,0,0-.174-.71,1.359,1.359,0,0,0-.474-.474,2.581,2.581,0,0,0-.663-.316c-.253-.079-.505-.174-.758-.253s-.505-.174-.758-.268a2.5,2.5,0,0,1-.663-.379,1.926,1.926,0,0,1-.474-.584,2.048,2.048,0,0,1-.174-.884,1.959,1.959,0,0,1,.158-.789,2.148,2.148,0,0,1,.458-.679,2.494,2.494,0,0,1,.742-.474,2.882,2.882,0,0,1,1.01-.174,3,3,0,0,1,1.152.205,3.183,3.183,0,0,1,.931.616Z" transform="translate(-137.642 -25.289)"/><path d="M139.341,33.556a3.113,3.113,0,0,1-1.437-.3,3.488,3.488,0,0,1-1.058-.805L136.8,32.4l.205-.316a.293.293,0,0,1,.237-.126.273.273,0,0,1,.189.095c.047.047.126.111.205.174s.174.142.268.221a1.984,1.984,0,0,0,.363.205,2.086,2.086,0,0,0,.474.158,2.383,2.383,0,0,0,.616.063,2.266,2.266,0,0,0,.837-.142,2.021,2.021,0,0,0,.616-.379,1.563,1.563,0,0,0,.379-.568,1.775,1.775,0,0,0,.126-.71,1.214,1.214,0,0,0-.158-.663,1.474,1.474,0,0,0-.442-.442,2.592,2.592,0,0,0-.631-.3c-.237-.079-.489-.174-.758-.253s-.521-.174-.758-.268a2.839,2.839,0,0,1-.679-.395,1.88,1.88,0,0,1-.489-.616,2.014,2.014,0,0,1-.189-.916,2.188,2.188,0,0,1,.158-.837,2.156,2.156,0,0,1,.474-.71,2.4,2.4,0,0,1,.774-.489A2.723,2.723,0,0,1,139.657,25a2.832,2.832,0,0,1,2.147.852l.047.047-.174.332c-.095.174-.268.221-.489.016a2.1,2.1,0,0,0-.316-.221,3.566,3.566,0,0,0-.489-.237,2.266,2.266,0,0,0-.726-.111,2.241,2.241,0,0,0-.758.126,1.541,1.541,0,0,0-.537.332,1.608,1.608,0,0,0-.332.474,1.4,1.4,0,0,0-.111.568,1.1,1.1,0,0,0,.158.631,1.474,1.474,0,0,0,.442.442,3.368,3.368,0,0,0,.631.316c.237.079.489.174.758.253a6.226,6.226,0,0,1,.758.284,2.839,2.839,0,0,1,.679.395,1.82,1.82,0,0,1,.489.6,1.877,1.877,0,0,1,.189.884,2.734,2.734,0,0,1-.189,1.01,2.389,2.389,0,0,1-.537.821,2.649,2.649,0,0,1-.852.552,3.157,3.157,0,0,1-1.105.189Zm-2.289-1.184a2.989,2.989,0,0,0,.947.71,3.021,3.021,0,0,0,1.358.284,2.89,2.89,0,0,0,1.073-.189,2.51,2.51,0,0,0,.789-.505,2.238,2.238,0,0,0,.489-.758,2.571,2.571,0,0,0,.174-.931,2.03,2.03,0,0,0-.158-.805,1.614,1.614,0,0,0-.442-.537,3.522,3.522,0,0,0-.631-.379c-.237-.095-.489-.189-.742-.284-.253-.079-.505-.174-.758-.253a3.877,3.877,0,0,1-.679-.332,1.608,1.608,0,0,1-.489-.489,1.327,1.327,0,0,1-.189-.742,1.816,1.816,0,0,1,.126-.647,1.408,1.408,0,0,1,.363-.537,1.531,1.531,0,0,1,.6-.363,2.243,2.243,0,0,1,.821-.126,2.384,2.384,0,0,1,.789.11,2.291,2.291,0,0,1,.521.253,2.232,2.232,0,0,1,.332.253c.095.079.126.079.126.079a.059.059,0,0,0,.063-.047l.111-.205a2.854,2.854,0,0,0-.837-.553,3.062,3.062,0,0,0-1.105-.189,2.7,2.7,0,0,0-.979.174,2.266,2.266,0,0,0-.71.442,2.05,2.05,0,0,0-.442.647,2.021,2.021,0,0,0-.142.758,1.877,1.877,0,0,0,.174.837,1.525,1.525,0,0,0,.442.553,2.747,2.747,0,0,0,.631.363c.237.095.489.189.742.268s.505.158.758.253a3.014,3.014,0,0,1,.679.332,1.364,1.364,0,0,1,.489.505,1.44,1.44,0,0,1,.189.774,2.188,2.188,0,0,1-.142.789,1.6,1.6,0,0,1-.426.631,2.259,2.259,0,0,1-.679.426,2.686,2.686,0,0,1-.9.158,2.935,2.935,0,0,1-.663-.079,3.133,3.133,0,0,1-.505-.174,1.638,1.638,0,0,1-.395-.237c-.11-.079-.205-.158-.284-.221a2.243,2.243,0,0,1-.189-.174c-.047-.047-.079-.047-.079-.047a.086.086,0,0,0-.079.047Z" transform="translate(-136.8 -24.953)"/><path d="M185.014,29.6a4.981,4.981,0,0,1-.284,1.721,3.66,3.66,0,0,1-2.036,2.178,4.346,4.346,0,0,1-3.173,0,3.523,3.523,0,0,1-1.231-.852,3.737,3.737,0,0,1-.805-1.326,5.352,5.352,0,0,1,0-3.441A3.66,3.66,0,0,1,179.52,25.7a4.346,4.346,0,0,1,3.173,0,3.523,3.523,0,0,1,1.231.852,3.737,3.737,0,0,1,.805,1.326A4.981,4.981,0,0,1,185.014,29.6Zm-.616,0a4.751,4.751,0,0,0-.237-1.547A3.3,3.3,0,0,0,183.5,26.9a2.883,2.883,0,0,0-1.042-.726,3.69,3.69,0,0,0-2.684,0,2.883,2.883,0,0,0-1.042.726,3.326,3.326,0,0,0-.679,1.152,4.684,4.684,0,0,0-.237,1.547,4.751,4.751,0,0,0,.237,1.547,3.1,3.1,0,0,0,.679,1.152,2.883,2.883,0,0,0,1.042.726,3.387,3.387,0,0,0,1.342.253,3.334,3.334,0,0,0,1.342-.253A2.7,2.7,0,0,0,183.5,32.3a3.3,3.3,0,0,0,.663-1.152A4.684,4.684,0,0,0,184.4,29.6Z" transform="translate(-170.823 -25.289)"/><path d="M180.694,33.372a4.365,4.365,0,0,1-1.61-.3,3.543,3.543,0,0,1-1.263-.868A3.909,3.909,0,0,1,177,30.846a5.163,5.163,0,0,1-.3-1.752,4.806,4.806,0,0,1,.3-1.752,4.06,4.06,0,0,1,.821-1.358,3.543,3.543,0,0,1,1.263-.868,4.125,4.125,0,0,1,1.61-.316,4.45,4.45,0,0,1,1.626.3,3.543,3.543,0,0,1,1.263.868,4.06,4.06,0,0,1,.821,1.358,5.545,5.545,0,0,1,0,3.5,4.06,4.06,0,0,1-.821,1.358,3.543,3.543,0,0,1-1.263.868A3.933,3.933,0,0,1,180.694,33.372Zm0-8.366a3.863,3.863,0,0,0-1.547.3,3.454,3.454,0,0,0-1.973,2.115,5.162,5.162,0,0,0,0,3.378,3.924,3.924,0,0,0,.774,1.294,3.531,3.531,0,0,0,1.2.821,4.353,4.353,0,0,0,3.094,0,3.532,3.532,0,0,0,1.2-.821,3.606,3.606,0,0,0,.773-1.279,5.162,5.162,0,0,0,0-3.378,3.924,3.924,0,0,0-.773-1.294,3.828,3.828,0,0,0-2.747-1.137Z" transform="translate(-170.401 -24.784)"/><path d="M239.726,33.867a2.53,2.53,0,0,0,1.058-.205,2.315,2.315,0,0,0,1.279-1.421,3.327,3.327,0,0,0,.174-1.073V26.1h.584v5.067a3.659,3.659,0,0,1-.221,1.263,3.069,3.069,0,0,1-.616,1.026,2.867,2.867,0,0,1-.979.679,3.378,3.378,0,0,1-1.294.253,3.055,3.055,0,0,1-2.273-.931,2.92,2.92,0,0,1-.616-1.026,3.726,3.726,0,0,1-.221-1.263V26.1h.6v5.051a3.4,3.4,0,0,0,.174,1.073,2.513,2.513,0,0,0,.489.852,2.409,2.409,0,0,0,.789.568,2.378,2.378,0,0,0,1.073.221Z" transform="translate(-220.846 -25.879)"/><path d="M239.389,33.977a3.257,3.257,0,0,1-1.326-.253,2.922,2.922,0,0,1-1.01-.71,3.251,3.251,0,0,1-.631-1.058,3.842,3.842,0,0,1-.221-1.294V25.5h.789v5.162a3.78,3.78,0,0,0,.158,1.042,2.336,2.336,0,0,0,.474.821,2.24,2.24,0,0,0,.758.553,2.563,2.563,0,0,0,1.01.205,2.508,2.508,0,0,0,1.01-.189,2.048,2.048,0,0,0,.758-.553,2.486,2.486,0,0,0,.474-.821,3.137,3.137,0,0,0,.158-1.042V25.5h.789v5.162a3.841,3.841,0,0,1-.221,1.294,3.251,3.251,0,0,1-.631,1.058,2.922,2.922,0,0,1-1.01.71,3.257,3.257,0,0,1-1.326.253Zm-3.015-8.288v4.973a3.477,3.477,0,0,0,.205,1.231,2.892,2.892,0,0,0,.6.995,2.565,2.565,0,0,0,.947.663,3.161,3.161,0,0,0,1.263.237,3.272,3.272,0,0,0,1.263-.237,2.7,2.7,0,0,0,.947-.663,3.159,3.159,0,0,0,.6-.995,3.477,3.477,0,0,0,.205-1.231V25.689h-.395v4.973a3.6,3.6,0,0,1-.174,1.105,2.328,2.328,0,0,1-.521.9,2.4,2.4,0,0,1-.821.6,2.684,2.684,0,0,1-1.089.221,2.63,2.63,0,0,1-1.089-.221,2.4,2.4,0,0,1-.821-.6,2.513,2.513,0,0,1-.505-.9,3.525,3.525,0,0,1-.174-1.105V25.689Z" transform="translate(-220.509 -25.374)"/><path d="M289.415,30.141h.489a3.68,3.68,0,0,0,.979-.126,1.982,1.982,0,0,0,.726-.379,1.638,1.638,0,0,0,.458-.584,1.739,1.739,0,0,0,.158-.774,1.507,1.507,0,0,0-.568-1.294,2.753,2.753,0,0,0-1.673-.426h-1.5v7.735H287.9V26.1h2.084a3.389,3.389,0,0,1,2.115.553,1.893,1.893,0,0,1,.695,1.61,2.1,2.1,0,0,1-.158.852,2.028,2.028,0,0,1-.474.679,2.314,2.314,0,0,1-.726.474,3.59,3.59,0,0,1-.963.253,1.188,1.188,0,0,1,.253.237l2.826,3.536h-.521a.467.467,0,0,1-.158-.032.281.281,0,0,1-.126-.111l-2.62-3.315a.669.669,0,0,0-.205-.174,4.359,4.359,0,0,0-.695-.047c0-.426.063-.474.189-.474Z" transform="translate(-264.048 -25.879)"/><path d="M293.251,33.882h-.71a.437.437,0,0,1-.205-.047.447.447,0,0,1-.158-.142l-2.62-3.315a.525.525,0,0,0-.174-.158,5.239,5.239,0,0,0-.647-.047h-.095v-.41c0-.142.032-.221.284-.221h.505a3.526,3.526,0,0,0,.947-.126,1.94,1.94,0,0,0,.695-.363,1.45,1.45,0,0,0,.426-.553,1.807,1.807,0,0,0,.142-.726,1.4,1.4,0,0,0-.537-1.216,2.689,2.689,0,0,0-1.61-.41h-1.4v7.719H287.3V25.5h2.194a3.519,3.519,0,0,1,2.178.568,2.016,2.016,0,0,1,.742,1.689,2.344,2.344,0,0,1-.174.9,2.2,2.2,0,0,1-.489.71,2.884,2.884,0,0,1-.758.505,3.692,3.692,0,0,1-.773.221.69.69,0,0,1,.095.111Zm-4.436-3.9a2.434,2.434,0,0,1,.631.063.763.763,0,0,1,.253.205l2.62,3.315a.268.268,0,0,0,.095.095.228.228,0,0,0,.11.032h.316l-2.7-3.378a.674.674,0,0,0-.221-.205l-.237-.142.284-.032a2.783,2.783,0,0,0,.931-.237,2.743,2.743,0,0,0,.71-.458,1.821,1.821,0,0,0,.442-.647,2.3,2.3,0,0,0,.158-.821,1.823,1.823,0,0,0-.663-1.531,3.328,3.328,0,0,0-2.052-.521h-1.989v7.972h.395V25.958h1.594a2.829,2.829,0,0,1,1.721.442,1.589,1.589,0,0,1,.616,1.373,2.152,2.152,0,0,1-.158.805,1.662,1.662,0,0,1-.489.616,2.157,2.157,0,0,1-.758.395,3.323,3.323,0,0,1-1.01.142h-.489c-.047,0-.095,0-.11.253Z" transform="translate(-263.542 -25.374)"/><path d="M333.241,32.314a.113.113,0,0,1,.095.047l.237.253a4.084,4.084,0,0,1-.552.489,3.37,3.37,0,0,1-.663.363,5.537,5.537,0,0,1-.774.237,4.359,4.359,0,0,1-.931.079,3.886,3.886,0,0,1-1.563-.3,3.325,3.325,0,0,1-1.216-.852,3.948,3.948,0,0,1-.789-1.326,4.981,4.981,0,0,1-.284-1.721,4.609,4.609,0,0,1,.3-1.7,3.917,3.917,0,0,1,.821-1.326,3.718,3.718,0,0,1,1.263-.852,4.2,4.2,0,0,1,1.626-.3,4.078,4.078,0,0,1,1.515.253,2.717,2.717,0,0,1,.6.316,4.692,4.692,0,0,1,.552.426l-.174.253a.154.154,0,0,1-.142.063.189.189,0,0,1-.126-.063c-.047-.047-.126-.095-.205-.158a2.484,2.484,0,0,0-.3-.189,1.335,1.335,0,0,0-.426-.189,3.6,3.6,0,0,0-.568-.158,3.361,3.361,0,0,0-.726-.063,3.491,3.491,0,0,0-1.373.253,2.982,2.982,0,0,0-1.073.742,3.546,3.546,0,0,0-.71,1.152,4.21,4.21,0,0,0-.253,1.531,4.3,4.3,0,0,0,.253,1.547,3.355,3.355,0,0,0,.695,1.152,3.134,3.134,0,0,0,2.336.979,4,4,0,0,0,.789-.063,2.463,2.463,0,0,0,.631-.174,2.887,2.887,0,0,0,.537-.284,2.825,2.825,0,0,0,.489-.395c.016-.016.032-.032.047-.032C333.193,32.33,333.225,32.314,333.241,32.314Z" transform="translate(-296.807 -25.289)"/><path d="M330.131,33.472a4.28,4.28,0,0,1-1.594-.3,3.482,3.482,0,0,1-1.247-.868,3.877,3.877,0,0,1-.805-1.358,5.165,5.165,0,0,1-.284-1.752,4.719,4.719,0,0,1,.3-1.736,4.372,4.372,0,0,1,.837-1.358,3.857,3.857,0,0,1,1.294-.884A4.388,4.388,0,0,1,330.3,24.9a4.254,4.254,0,0,1,1.547.253,2.833,2.833,0,0,1,.616.316,4.625,4.625,0,0,1,.568.442l.063.063-.221.331a.248.248,0,0,1-.221.111.375.375,0,0,1-.189-.079,1.152,1.152,0,0,0-.205-.142,1.65,1.65,0,0,0-.3-.189,3.418,3.418,0,0,0-.41-.189,2.562,2.562,0,0,0-.553-.142,4.565,4.565,0,0,0-.71-.063,3.387,3.387,0,0,0-1.342.253,3.028,3.028,0,0,0-1.721,1.831,4.431,4.431,0,0,0-.253,1.484,4.493,4.493,0,0,0,.237,1.515,3.154,3.154,0,0,0,.663,1.121,2.822,2.822,0,0,0,1.01.695,3.272,3.272,0,0,0,1.263.237,3.833,3.833,0,0,0,.773-.063,2.527,2.527,0,0,0,.616-.174,4.02,4.02,0,0,0,.521-.268,4.967,4.967,0,0,0,.474-.379.21.21,0,0,1,.079-.047.219.219,0,0,1,.268.047l.3.316-.063.063a4.325,4.325,0,0,1-.568.505,3.136,3.136,0,0,1-.679.379,3,3,0,0,1-.805.237A3.351,3.351,0,0,1,330.131,33.472Zm.174-8.382a3.987,3.987,0,0,0-1.594.3,3.347,3.347,0,0,0-1.231.837,3.742,3.742,0,0,0-.805,1.294,4.711,4.711,0,0,0-.284,1.673,4.8,4.8,0,0,0,.284,1.689,3.924,3.924,0,0,0,.773,1.294,3.468,3.468,0,0,0,1.184.821,3.927,3.927,0,0,0,1.515.284,5.5,5.5,0,0,0,.916-.079,2.836,2.836,0,0,0,.758-.237,2.746,2.746,0,0,0,.631-.363,4.021,4.021,0,0,0,.474-.41L332.751,32a.03.03,0,0,0-.047,0c-.016,0-.032.016-.047.032a3.968,3.968,0,0,1-.505.395,3.743,3.743,0,0,1-.553.3,3.013,3.013,0,0,1-.647.174,5.957,5.957,0,0,1-.805.063,3.755,3.755,0,0,1-1.342-.253,3.192,3.192,0,0,1-1.073-.742,3.534,3.534,0,0,1-.71-1.184,5.01,5.01,0,0,1,0-3.141,3.326,3.326,0,0,1,.726-1.184,3.141,3.141,0,0,1,1.105-.758,3.712,3.712,0,0,1,1.4-.268A3.612,3.612,0,0,1,331,25.5a4.414,4.414,0,0,1,.584.158,2.309,2.309,0,0,1,.442.205,3.176,3.176,0,0,1,.3.205c.079.063.158.11.205.158s.079.047.079.047c.047,0,.063-.016.063-.032l.126-.189a4.739,4.739,0,0,0-.474-.363,2.921,2.921,0,0,0-.584-.3,4.261,4.261,0,0,0-.679-.189,2.192,2.192,0,0,0-.758-.111Z" transform="translate(-296.302 -24.868)"/><path d="M384.109,26.1v.489H379.8V29.9h3.583v.474H379.8v3.41h4.31v.489H379.2V26.1Z" transform="translate(-340.935 -25.879)"/><path d="M383.7,33.882h-5.1V25.5h5.1v.679h-4.309v3.11h3.583v.679h-3.583v3.22H383.7Zm-4.909-.189h4.72v-.3H379.2V29.778h3.583v-.284H379.2v-3.5h4.309v-.3h-4.72Z" transform="translate(-340.43 -25.374)"/><path d="M428.672,24.826v1.247h-3.71v2.478h3.126V29.8h-3.126v3.41H423.4V24.842h5.272Zm9.077,4.183a4.608,4.608,0,0,1-.3,1.7,3.925,3.925,0,0,1-.868,1.358,4.011,4.011,0,0,1-1.342.9,4.418,4.418,0,0,1-1.736.316,4.721,4.721,0,0,1-1.736-.316,3.953,3.953,0,0,1-2.21-2.257,5,5,0,0,1,0-3.41,3.925,3.925,0,0,1,.868-1.358,4.177,4.177,0,0,1,1.342-.9,4.821,4.821,0,0,1,3.473.016,3.953,3.953,0,0,1,2.21,2.257A4.8,4.8,0,0,1,437.749,29.01Zm-1.594,0a3.735,3.735,0,0,0-.189-1.231,2.8,2.8,0,0,0-.521-.931,2.284,2.284,0,0,0-.837-.584,3.078,3.078,0,0,0-2.21,0,2.424,2.424,0,0,0-.837.584,2.579,2.579,0,0,0-.537.931,4.1,4.1,0,0,0,0,2.463,2.579,2.579,0,0,0,.537.931,2.424,2.424,0,0,0,.837.584,3.078,3.078,0,0,0,2.21,0,2.424,2.424,0,0,0,.837-.584,2.8,2.8,0,0,0,.521-.931A3.735,3.735,0,0,0,436.155,29.01ZM441,28.82h.363a2.287,2.287,0,0,0,.773-.111,1.588,1.588,0,0,0,.537-.3,1.139,1.139,0,0,0,.316-.458,1.746,1.746,0,0,0,.11-.584,1.171,1.171,0,0,0-.426-.979,2.058,2.058,0,0,0-1.279-.347h-1.01v7.167h-1.563V24.842h2.557a5.673,5.673,0,0,1,1.468.174,2.665,2.665,0,0,1,.995.489,1.887,1.887,0,0,1,.568.758,2.46,2.46,0,0,1,.189.979,2.685,2.685,0,0,1-.126.805,2.165,2.165,0,0,1-.363.679,2.391,2.391,0,0,1-.584.537,2.582,2.582,0,0,1-.789.363,1.592,1.592,0,0,1,.505.474l2.1,3.094h-1.4a.752.752,0,0,1-.347-.079.569.569,0,0,1-.237-.237L441.6,30.193c-.047-.063-.142-.205-.237-.221h-.553v-1.01c.016-.142.189-.142.189-.142Zm8.919,3.236a3.886,3.886,0,0,0,.916-.095,4.166,4.166,0,0,0,.742-.268V29.8h-1.042a.388.388,0,0,1-.237-.079.278.278,0,0,1-.095-.205v-.884h2.778v3.757a3.5,3.5,0,0,1-.663.395,5.165,5.165,0,0,1-.742.284,4.619,4.619,0,0,1-.837.158,9.145,9.145,0,0,1-.963.047,4.53,4.53,0,0,1-1.689-.316,3.691,3.691,0,0,1-1.326-.884,4.208,4.208,0,0,1-.884-1.358,4.7,4.7,0,0,1-.316-1.721,4.778,4.778,0,0,1,.3-1.736,3.926,3.926,0,0,1,.868-1.358,3.885,3.885,0,0,1,1.373-.884,5,5,0,0,1,1.8-.316,4.606,4.606,0,0,1,1.768.3,4.2,4.2,0,0,1,1.263.789l-.458.71a.414.414,0,0,1-.347.221.509.509,0,0,1-.284-.095c-.126-.079-.253-.142-.379-.221a1.747,1.747,0,0,0-.426-.189,4.2,4.2,0,0,0-.521-.126,4.288,4.288,0,0,0-.679-.047,2.836,2.836,0,0,0-1.121.205,2.325,2.325,0,0,0-.852.6,2.578,2.578,0,0,0-.537.931,3.705,3.705,0,0,0-.189,1.216,3.653,3.653,0,0,0,.205,1.294,2.805,2.805,0,0,0,.568.947,2.592,2.592,0,0,0,.868.6,2.976,2.976,0,0,0,1.137.221Zm8.572-2.226H455.95v2.115h3.694v1.247h-5.272V24.826h5.272v1.247h-3.71v2.573h2.92v.916s-.016.268-.363.268Z" transform="translate(-378.158 -24.7)"/></g></g><line y2="25" transform="translate(265.5 474.5)" fill="none" stroke="#707070" stroke-width="1"/><line y2="25" transform="translate(528.095 474.5)" fill="none" stroke="#707070" stroke-width="1"/><line y2="25" transform="translate(732.095 474.5)" fill="none" stroke="#707070" stroke-width="1"/></g></svg>